-
http:// www. Speed. Cd       
http:// www. Speed. Cd       the fast  and The Hottest Private Tracker on the net

Please Seed back to make the speed Faster!!!

and don't forget to visit      ...... www. Speed. Cd..........
-[img]http://img858.imageshack.us/img858/5045/91fwtogbgb.jpg[/img]

[color=blue][size=5][b]Age Of The Dragons 2011 BDRip XVID AC3 HQ Hive-CM8[/b][/size][/color]



[b]Thx Hive

CM8 Doing It Right The First Time :D

nron you sir are an idiot

Why download a touched up rip of a rip BRrip
Get the real deal BDRip
Enjoy

Source Bluray

Video: 720x304 @bitrate 1900 2pass
Audio: DTS to AC3 5.1 @448
Sample: yes included[/b]


[url]http://www.imdb.com/title/tt1594917/[/url]


General
Complete name                    : Age.Of.The.Dragons.2011.BDRip.XVID.AC3.HQ.Hive-CM8.avi
Format                           : AVI
Format/Info                      : Audio Video Interleave
File size                        : 1.54 GiB
Duration                         : 1h 34mn
Overall bit rate                 : 2 323 Kbps
Writing application              : Nandub v1.0rc2
Writing library                  : Nandub build 1853/release

Video
ID                               : 0
Format                           : MPEG-4 Visual
Format profile                   : Advanced Simple@L5
Format settings, BVOP            : Yes
Format settings, QPel            : Yes
Format settings, GMC             : No warppoints
Format settings, Matrix          : Default (H.263)
Muxing mode                      : Packed bitstream
Codec ID                         : XVID
Codec ID/Hint                    : XviD
Duration                         : 1h 34mn
Bit rate                         : 1 866 Kbps
Width                            : 720 pixels
Height                           : 304 pixels
Display aspect ratio             : 2.35:1
Frame rate                       : 23.976 fps
Color space                      : YUV
Chroma subsampling               : 4:2:0
Bit depth                        : 8 bits
Scan type                        : Progressive
Bits/(Pixel*Frame)               : 0.355
Stream size                      : 1.23 GiB (80%)
Writing library                  : XviD 1.2.1 (UTC 2008-12-04)

Audio
ID                               : 1
Format                           : AC-3
Format/Info                      : Audio Coding 3
Mode extension                   : CM (complete main)
Codec ID                         : 2000
Duration                         : 1h 34mn
Bit rate mode                    : Constant
Bit rate                         : 448 Kbps
Channel(s)                       : 6 channels
Channel positions                : Front: L C R, Side: L R, LFE
Sampling rate                    : 48.0 KHz
Bit depth                        : 16 bits
Stream size                      : 303 MiB (19%)
Alignment                        : Split accross interleaves
Interleave, duration             : 42 ms (1.00 video frame)
Interleave, preload duration     : 500 ms




Danny Glover	 ... 	Ahab
Vinnie Jones	... 	Stubbs
Corey Sevier	... 	Ishmael
Sofia Pernas	... 	Rachel
Larry Bagby	... 	Flask
Kepa Kruse	... 	Queequeg (as John Kepa Kruse)
David Morgan	... 	Starbuck



Age of the Dragons is a re-imagining of Herman Melville's classic novel Moby Dick. 
Set in a mythical realm where Captain Ahab and crew hunt dragons for the vitriol 
that powers their world, Ishmael, a charismatic harpooner joins their quest. Ahab's 
adopted daughter Rachel, beautiful and tough, runs the hunting vessel. Ahab's obsession 
is to seek revenge on a great "White Dragon" that slaughtered his family when he was young 
and left his body scarred and mauled, drives the crew deeper into the heart of darkness. 
In the White Dragon's lair Ahab's secrets are revealed and Rachel must choose between 
following him on his dark quest or escaping to a new life with Ishmael.




[img]http://img695.imageshack.us/img695/5686/aaagaggagg.png[/img]
[img]http://img190.imageshack.us/img190/3225/aaaggagg.png[/img]
[img]http://img151.imageshack.us/img151/213/aagaagaggagg.png[/img]
[img]http://img805.imageshack.us/img805/4361/aagagaagaggagg.png[/img]
[img]http://img101.imageshack.us/img101/4098/aagagg.png[/img]
[img]http://img855.imageshack.us/img855/8591/aagg.png[/img]
[img]http://img852.imageshack.us/img852/2682/85361650.png[/img]




Greetz

ViSiON,LUSi,,MAGNET,CLASSiFiED,THC,T0XiCiNK,IMAGiNE,WBZ,FLAWL3SS,NOVA
Vik,Rapeseed,D2U,SAFC,goldadvance,MEMORY100,KaN1vE,Unevano,Pinnz,Wayne,Mr Hive
and all P2P groups
Great Work Guys :D

CM8@hushmail.com